<?xml version="1.0" standalone="no"?>
<!DOCTYPE svg PUBLIC "-//W3C//DTD SVG 20010904//EN"
 "http://www.w3.org/TR/2001/REC-SVG-20010904/DTD/svg10.dtd">
<svg version="1.0" xmlns="http://www.w3.org/2000/svg"
 width="512.000000pt" height="512.000000pt" viewBox="0 0 512.000000 512.000000"
 preserveAspectRatio="xMidYMid meet">
<metadata>
Created by potrace 1.14, written by Peter Selinger 2001-2017
</metadata>
<g transform="translate(0.000000,512.000000) scale(0.100000,-0.100000)"
fill="#000000" stroke="none">
<path d="M2325 5109 c-591 -60 -1122 -305 -1537 -707 -227 -220 -385 -435
-522 -712 -259 -523 -329 -1103 -204 -1690 50 -235 186 -569 323 -790 135
-217 361 -473 560 -635 368 -299 822 -493 1305 -557 123 -16 509 -16 625 0
459 65 873 233 1230 501 122 92 341 304 440 426 299 368 493 822 557 1305 16
123 16 509 0 625 -65 459 -233 873 -501 1230 -92 122 -304 341 -426 440 -365
297 -826 494 -1295 555 -116 15 -445 21 -555 9z m410 -1334 c140 -21 235 -49
345 -102 119 -57 227 -158 253 -237 50 -148 -13 -309 -145 -366 -82 -35 -95
-32 -411 105 -162 70 -257 79 -354 33 -72 -34 -112 -132 -79 -195 35 -69 70
-88 428 -238 304 -128 404 -185 519 -295 92 -90 133 -165 155 -292 26 -144 4
-281 -68 -428 -53 -108 -174 -233 -288 -297 -226 -126 -532 -164 -810 -99
-338 78 -574 237 -610 411 -14 69 0 127 51 205 53 83 101 112 193 118 96 6
153 -12 291 -89 202 -113 306 -141 446 -120 109 17 158 61 167 149 7 81 -28
127 -143 185 -28 14 -161 71 -295 127 -135 56 -275 119 -311 140 -139 82 -249
180 -302 271 -74 126 -87 350 -31 519 120 361 532 565 999 495z"/>
</g>
</svg>
