<?xml version="1.0" standalone="no"?>
<!DOCTYPE svg PUBLIC "-//W3C//DTD SVG 20010904//EN"
 "http://www.w3.org/TR/2001/REC-SVG-20010904/DTD/svg10.dtd">
<svg version="1.0" xmlns="http://www.w3.org/2000/svg"
 width="512.000000pt" height="512.000000pt" viewBox="0 0 512.000000 512.000000"
 preserveAspectRatio="xMidYMid meet">
<metadata>
Created by potrace 1.14, written by Peter Selinger 2001-2017
</metadata>
<g transform="translate(0.000000,512.000000) scale(0.100000,-0.100000)"
fill="#000000" stroke="none">
<path d="M2356 5110 c-780 -65 -1491 -483 -1921 -1130 -287 -432 -428 -897
-428 -1420 -1 -414 81 -766 266 -1139 338 -686 979 -1188 1727 -1355 193 -43
347 -59 560 -59 414 -1 766 81 1139 266 686 338 1188 979 1355 1727 43 193 59
347 59 560 1 414 -81 766 -266 1139 -338 686 -979 1189 -1727 1355 -234 52
-540 74 -764 56z m499 -1354 c135 -34 214 -67 312 -132 130 -86 185 -174 186
-294 1 -125 -80 -244 -188 -276 -74 -21 -99 -14 -314 81 -228 102 -329 117
-430 66 -47 -25 -71 -57 -80 -109 -10 -57 -3 -80 37 -120 45 -44 104 -74 378
-188 325 -135 410 -183 537 -303 124 -118 174 -253 164 -441 -32 -544 -640
-850 -1292 -649 -292 90 -485 249 -502 415 -5 44 -1 62 24 116 56 119 127 176
233 185 80 8 152 -16 312 -104 178 -97 206 -106 348 -107 101 0 120 2 158 22
74 39 104 140 62 207 -32 52 -99 88 -377 204 -142 59 -278 118 -303 131 -150
76 -306 211 -358 308 -46 86 -62 160 -62 287 0 205 57 343 205 490 125 126
258 193 452 230 122 23 370 14 498 -19z"/>
</g>
</svg>
