<svg width="800" height="800" viewBox="0 0 800 800" fill="none" xmlns="http://www.w3.org/2000/svg">
<path fill-rule="evenodd" clip-rule="evenodd" d="M0 400C0 179.086 179.086 0 400 0V0C620.914 0 800 179.086 800 400V400C800 620.914 620.914 800 400 800V800C179.086 800 0 620.914 0 400V400ZM271.706 486.307C263.902 496.534 260 506.142 260 515.133C260 529.068 267.404 541.99 282.211 553.9C297.019 565.815 315.248 575.144 336.899 581.886C358.551 588.629 379.136 592 398.655 592C426.251 592 450.875 586.887 472.526 576.66C494.175 566.433 510.833 552.498 522.5 534.855C534.167 517.211 540 497.264 540 475.013C540.001 449.166 531.902 428.601 515.702 413.317C499.503 398.034 480.218 385.841 457.847 376.738C435.475 367.635 414.296 358.757 394.309 350.104C374.321 341.45 364.327 332.292 364.327 322.627C364.329 313.637 367.454 306.782 373.701 302.062C379.948 297.342 387.787 294.982 397.219 294.982C405.996 294.861 414.712 296.465 422.873 299.702C430.548 302.849 441.458 307.681 455.602 314.199C469.745 320.717 479.337 323.976 484.378 323.976C495.559 323.975 504.932 319.48 512.497 310.49C520.061 301.5 523.844 291.273 523.844 279.81C523.844 264.751 517.281 251.716 504.156 240.703C491.031 229.689 474.933 221.486 455.862 216.091C437.702 210.828 418.902 208.105 399.996 208C373.972 208 350.752 212.889 330.335 222.666C309.918 232.443 293.989 246.097 282.546 263.628C271.103 281.159 265.382 301.275 265.382 323.975C265.38 349.598 273.421 370.163 289.505 385.672C305.589 401.18 325.215 413.655 348.384 423.094C371.552 432.534 392.79 441.412 412.097 449.728C431.405 458.044 441.059 467.034 441.059 476.699C441.059 486.363 438.256 493.499 432.648 498.107C427.041 502.715 417.093 505.018 402.804 505.018C392.248 505.018 383.287 503.67 375.922 500.973C368.557 498.276 359.873 494.006 349.869 488.162C339.866 482.318 331.567 477.992 324.971 475.182C318.375 472.373 310.679 470.968 301.883 470.968C289.569 470.968 279.51 476.081 271.706 486.307Z" fill="white"/>
</svg>
