<svg width="115" height="32" viewBox="0 0 115 32" fill="none" xmlns="http://www.w3.org/2000/svg">
<g clip-path="url(#clip0)">
<path fill-rule="evenodd" clip-rule="evenodd" d="M31.9917 16.5313C31.7188 25.1145 24.6579 32 16 32C7.35266 32 0.298388 25.1313 0.00924714 16.5609C1.04113 20.0625 3.68205 22.8912 7.06428 24.211C9.28229 26.6233 12.4656 28.1364 16 28.1364C19.5403 28.1364 22.7286 26.6181 24.9468 24.1987C28.3293 22.8742 30.9672 20.0393 31.9917 16.5313ZM7.63271e-05 13.2709C0.00674589 12.2088 0.869847 11.3499 1.93349 11.3499C3.00138 11.3499 3.86706 12.2155 3.86706 13.2834C3.86706 17.372 7.26543 20.6914 11.3577 20.6914C11.4023 20.6914 11.4468 20.6911 11.4913 20.6902C12.56 21.987 13.9011 23.0538 15.4237 23.8036C14.1592 24.2888 12.7873 24.5551 11.3577 24.5551C5.13117 24.5551 0 19.5044 0 13.2834L7.63271e-05 13.2709ZM16.8108 23.8906C12.4433 22.325 9.28456 18.1644 9.28456 13.2834V6.56998C9.28456 5.0763 8.07085 3.86365 6.57581 3.86365C5.08084 3.86365 3.86706 5.0763 3.86706 6.56998V11.8686C3.43111 11.2738 2.7274 10.8877 1.93349 10.8877C1.13966 10.8877 0.435947 11.2738 0 11.8686V6.56998C0 2.94393 2.94651 0 6.57581 0C10.2051 0 13.1516 2.94393 13.1516 6.56998V13.2834C13.1516 17.3275 16.4763 20.619 20.5087 20.6902L20.5999 20.6913L20.6423 20.6914L20.7446 20.6908L20.8412 20.6888L20.9336 20.6858L20.9769 20.684L21.078 20.6789L21.1724 20.6728L21.2652 20.6657L21.3626 20.6569L21.451 20.6479L21.5494 20.6366L21.6354 20.6257L21.7339 20.6118L21.8217 20.5984L21.9167 20.5826L22.0102 20.5659L22.0978 20.5491L22.193 20.5296L22.2774 20.5113L22.3729 20.4892L22.4553 20.4691L22.5506 20.4447L22.6391 20.4208L22.7264 20.3961L22.8177 20.369L22.9003 20.3434L22.9923 20.3136L23.0724 20.2866L23.1641 20.2545L23.2459 20.2247L23.3338 20.1914L23.4207 20.1573L23.5014 20.1246L23.5894 20.0875L23.6669 20.0539L23.7548 20.0144L23.8303 19.9794L23.9177 19.9376L23.9993 19.8973L24.0781 19.8573L24.1617 19.8135L24.2362 19.7733L24.32 19.7269L24.392 19.6858L24.4752 19.6371L24.5504 19.5918L24.6277 19.544L24.7065 19.4939L24.7777 19.4474L24.8568 19.3944L24.9251 19.3476L25.0037 19.2923L25.07 19.2444L25.1476 19.1871L25.2212 19.1312L25.2887 19.0788L25.3629 19.0196L25.427 18.9673L25.5006 18.9057L25.5625 18.8528L25.6351 18.7892L25.7031 18.728L25.7665 18.6697L25.8356 18.6045L25.8949 18.5474L25.9632 18.4798L26.0203 18.4221L26.0875 18.3526L26.1495 18.2868L26.2083 18.2229L26.2722 18.1518L26.3261 18.0903L26.389 18.0169L26.4407 17.9552L26.502 17.88L26.5568 17.8112L26.6117 17.7406L26.6586 17.6789L26.718 17.5987L26.762 17.5379L26.8209 17.4543L26.8631 17.393L26.9262 17.2987L26.9824 17.212L27.0345 17.1293L27.0758 17.0619L27.1261 16.9775L27.1653 16.9099L27.2141 16.8235L27.25 16.7582L27.2984 16.6674L27.3279 16.6107L27.3615 16.5445L27.3948 16.477L27.4393 16.3845L27.4666 16.3257L27.4971 16.2586L27.5278 16.1892L27.568 16.095L27.5932 16.0343L27.6206 15.9663L27.6485 15.8948C27.6559 15.8756 27.6634 15.856 27.6707 15.8364C27.9693 15.0405 28.1329 14.1804 28.1329 13.2834C28.1329 12.2155 28.9986 11.3499 30.0665 11.3499C31.1301 11.3499 31.9932 12.2088 31.9999 13.2709L31.9999 13.2834C31.9999 18.0916 28.9348 22.2007 24.6675 23.8191L24.5939 23.8468L24.4637 23.8941L24.3328 23.9401L24.2525 23.9673L24.1352 24.006L24.0689 24.0271L24.0025 24.048L23.8692 24.0884L23.7696 24.1174L23.6474 24.1517L23.5248 24.1845L23.4638 24.2003L23.3775 24.2221L23.2612 24.2503L23.1537 24.2752L23.0289 24.3026L22.9037 24.3288L22.841 24.3414L22.7789 24.3533L22.6929 24.3694L22.5711 24.3911L22.4618 24.4093L22.3345 24.4291L22.2068 24.4475L22.1427 24.4563L22.0792 24.4645L21.9909 24.4753L21.8671 24.4894L21.7563 24.5007L21.6266 24.5127L21.5616 24.5181L21.4965 24.5232L21.4314 24.5279L21.3307 24.5344L21.2314 24.5399L21.1646 24.5432L21.0989 24.546L21.0058 24.5493L20.9036 24.5521L20.836 24.5534L20.7692 24.5543L20.7039 24.5549C20.6834 24.555 20.6628 24.5551 20.6423 24.5551L20.5733 24.5549L20.5047 24.5543L20.4368 24.5532L20.3695 24.5518L20.3037 24.5501L20.2063 24.5468L20.1054 24.5425L20.0378 24.5391L19.9709 24.5354L19.9105 24.5317L19.8455 24.5274L19.7586 24.5209L19.6312 24.5104L19.5162 24.4996L19.3856 24.4859L19.2554 24.4707L19.1905 24.4626L19.1256 24.4541L19.0637 24.4456C19.0176 24.4391 18.9716 24.4325 18.9256 24.4254L18.8388 24.4118L18.739 24.3955L18.6111 24.373L18.4837 24.3492L18.4201 24.3367L18.3648 24.3255C18.2965 24.3116 18.2284 24.297 18.1605 24.2819L18.0828 24.2641L17.9789 24.2397L17.854 24.2088L17.7296 24.1766L17.6676 24.1599L17.6144 24.1454C17.548 24.127 17.4818 24.1081 17.416 24.0885L17.3356 24.0643L17.2156 24.0271L17.116 23.9951L16.995 23.9548L16.8746 23.9132L16.8108 23.8906ZM28.1329 11.8812V6.56998C28.1329 5.0763 26.9191 3.86365 25.4241 3.86365C23.9291 3.86365 22.7154 5.0763 22.7154 6.56998V13.2834C22.7154 15.8987 21.8085 18.3071 20.2944 20.2207C18.8263 20.1484 17.4666 19.6218 16.3621 18.7788C17.8832 17.4226 18.8483 15.4622 18.8483 13.2834V6.56998C18.8483 2.94393 21.7948 0 25.4241 0C29.0534 0 31.9999 2.94393 31.9999 6.56998V11.8813C31.566 11.2837 30.8616 10.8951 30.0665 10.8951C29.2713 10.8951 28.567 11.2836 28.1329 11.8812Z" fill="url(#paint0_linear)"/>
<path d="M57.2403 4.31787C57.707 4.31787 58.0737 4.4512 58.3737 4.7512C58.6403 5.0512 58.7737 5.4512 58.7737 5.91787V18.7179C58.7737 20.4845 58.3737 22.0512 57.607 23.4512C56.8403 24.8512 55.7737 25.9512 54.407 26.7179C53.0404 27.5179 51.4737 27.9179 49.7737 27.9179C48.0404 27.9179 46.4737 27.5179 45.107 26.7179C43.7404 25.9512 42.6404 24.8512 41.8737 23.4512C41.107 22.0512 40.707 20.4845 40.707 18.7179V5.91787C40.707 5.4512 40.8737 5.0512 41.1737 4.7512C41.4737 4.4512 41.8737 4.31787 42.3737 4.31787C42.807 4.31787 43.1737 4.48454 43.507 4.78454C43.807 5.08454 43.9737 5.48454 43.9737 5.91787V18.7179C43.9737 19.8845 44.2404 20.9179 44.7737 21.8512C45.307 22.7512 46.007 23.4845 46.907 23.9845C47.807 24.4845 48.7404 24.7512 49.7737 24.7512C50.8404 24.7512 51.8404 24.4845 52.7404 23.9845C53.6404 23.4845 54.3737 22.7512 54.907 21.8512C55.4737 20.9179 55.7403 19.8845 55.7403 18.7179V5.91787C55.7403 5.4512 55.8737 5.0512 56.1403 4.7512C56.407 4.4512 56.7737 4.31787 57.2403 4.31787Z" fill="#212529"/>
<path d="M76.0478 4.34912C76.5145 4.34912 76.9145 4.48245 77.2145 4.74912C77.5145 5.04912 77.6478 5.41579 77.6478 5.88245C77.6478 6.34912 77.5145 6.71579 77.2145 6.98245C76.9145 7.24912 76.5145 7.38245 76.0478 7.38245H70.1145V26.0824C70.1145 26.5158 69.9478 26.9158 69.6145 27.2158C69.3145 27.5158 68.9145 27.6824 68.4145 27.6824C67.9145 27.6824 67.5145 27.5158 67.2145 27.2158C66.8811 26.9158 66.7145 26.5158 66.7145 26.0824V7.38245H60.8145C60.3478 7.38245 59.9811 7.24912 59.6811 6.94912C59.3811 6.68245 59.2145 6.31579 59.2145 5.84912C59.2145 5.41579 59.3811 5.04912 59.6811 4.74912C59.9811 4.48245 60.3478 4.34912 60.8145 4.34912H76.0478Z" fill="#212529"/>
<path d="M97.1491 25.599C97.2157 25.799 97.2491 25.999 97.2491 26.2323C97.2491 26.6656 97.1157 27.0323 96.8157 27.3323C96.5157 27.6323 96.1491 27.7656 95.7491 27.7656C95.4491 27.7656 95.1491 27.6656 94.9157 27.4656C94.6491 27.299 94.4491 27.0323 94.2824 26.699L92.2157 21.799H81.9157L79.8824 26.7323C79.7824 27.0656 79.5824 27.3323 79.3157 27.499C79.0824 27.6656 78.7824 27.7656 78.4824 27.7656C78.0157 27.7656 77.6491 27.6323 77.4157 27.399C77.1824 27.1656 77.0491 26.8323 77.0491 26.399C77.0491 26.299 77.0824 26.1323 77.1157 25.8656L85.6157 5.26567C85.7824 4.899 85.9824 4.63233 86.2824 4.43233C86.5491 4.26567 86.8491 4.199 87.2157 4.23233C87.5491 4.23233 87.8491 4.33233 88.1157 4.499C88.3824 4.66567 88.5824 4.93233 88.6824 5.26567L97.1491 25.599ZM83.1824 18.7657H90.9491L87.0491 9.43233L83.1824 18.7657Z" fill="#212529"/>
<path d="M106.079 28.005C104.446 28.005 103.012 27.7717 101.779 27.305C100.546 26.8717 99.3455 26.1383 98.2122 25.105C97.7455 24.705 97.5122 24.2383 97.5122 23.7383C97.5122 23.3383 97.6789 22.9717 97.9789 22.6383C98.2789 22.3383 98.6455 22.1717 99.0789 22.1717C99.4455 22.1717 99.7789 22.305 100.046 22.5383C100.946 23.3717 101.846 23.9717 102.812 24.3383C103.746 24.7383 104.812 24.9383 106.012 24.9383C107.412 24.9383 108.612 24.605 109.579 23.9717C110.546 23.3383 111.012 22.505 111.012 21.5383C110.979 20.3717 110.512 19.4717 109.579 18.8383C108.612 18.2383 107.179 17.705 105.246 17.2717C102.946 16.805 101.212 16.0383 99.9789 14.9717C98.7455 13.905 98.1122 12.4383 98.1122 10.5383C98.1122 9.23833 98.4455 8.07167 99.1455 7.07167C99.8455 6.105 100.779 5.33834 102.012 4.805C103.246 4.27167 104.612 4.005 106.146 4.005C107.512 4.005 108.812 4.23834 110.046 4.67167C111.279 5.105 112.246 5.705 113.012 6.43833C113.512 6.87167 113.779 7.37167 113.779 7.87167C113.779 8.27167 113.646 8.63833 113.346 8.93833C113.012 9.23833 112.679 9.405 112.246 9.405C111.946 9.405 111.679 9.305 111.479 9.13833C110.912 8.57167 110.112 8.07167 109.079 7.67167C108.046 7.27167 107.079 7.07167 106.146 7.07167C104.646 7.07167 103.479 7.37167 102.612 7.97167C101.712 8.605 101.279 9.405 101.279 10.405C101.279 11.505 101.712 12.3383 102.612 12.905C103.479 13.4717 104.779 13.9717 106.512 14.3717C108.246 14.7383 109.679 15.205 110.779 15.705C111.879 16.205 112.712 16.9383 113.312 17.8383C113.912 18.7383 114.212 19.9383 114.212 21.405C114.212 22.705 113.846 23.8383 113.112 24.8383C112.412 25.8383 111.412 26.605 110.179 27.1717C108.946 27.7383 107.579 28.005 106.079 28.005Z" fill="#212529"/>
</g>
<defs>
<linearGradient id="paint0_linear" x1="2.33116" y1="1.55354" x2="28.9879" y2="25.3475" gradientUnits="userSpaceOnUse">
<stop stop-color="#0459F1"/>
<stop offset="1" stop-color="#36B1FF"/>
</linearGradient>
<clipPath id="clip0">
<rect width="114.212" height="32" fill="white"/>
</clipPath>
</defs>
</svg>
